<?xml version="1.0" encoding="UTF-8"?>
<svg version="1.1" xmlns="http://www.w3.org/2000/svg" width="500" height="500">
<path d="M0 0 C2.8125 2.3125 2.8125 2.3125 5 6 C5 9.96 5 13.92 5 18 C22.49 18 39.98 18 58 18 C58 14.04 58 10.08 58 6 C61 1 61 1 62.8671875 -0.03125 C66.40008593 -0.85605119 68.34176077 -1.24866815 71.8125 0.0625 C74.43811151 2.38804162 75.69572161 3.70498092 77 7 C77.08138273 8.89424732 77.10070433 10.79169026 77.07421875 12.6875 C77.05814575 14.17830078 77.05814575 14.17830078 77.04174805 15.69921875 C77.02797119 16.45847656 77.01419434 17.21773437 77 18 C78.12494873 17.98428955 79.24989746 17.9685791 80.40893555 17.95239258 C84.59278165 17.89798784 88.77659662 17.86361164 92.96069336 17.83520508 C94.76966617 17.82014245 96.5786026 17.79968823 98.38745117 17.77368164 C100.99146515 17.7371868 103.5949952 17.72024843 106.19921875 17.70703125 C107.40731453 17.68380547 107.40731453 17.68380547 108.63981628 17.66011047 C114.25275717 17.65843789 117.41953538 18.78817319 121.75 22.5 C124.50662441 25.80794929 124.13020113 29.40444546 124.14044189 33.50177002 C124.14341302 34.16501337 124.14638414 34.82825672 124.1494453 35.51159835 C124.15813088 37.73853922 124.15964043 39.96542633 124.16113281 42.19238281 C124.16576113 43.78735977 124.17078581 45.38233562 124.17617798 46.97731018 C124.18930373 51.31424067 124.19574743 55.65115567 124.20018864 59.98810291 C124.20311944 62.69798046 124.20722429 65.40785377 124.21169281 68.11772919 C124.22536899 76.59717039 124.23503472 85.07660193 124.2388947 93.5560534 C124.24337412 103.34248189 124.26091611 113.12877061 124.2898953 122.9151566 C124.31151922 130.48044726 124.32159938 138.04569862 124.32293582 145.61101985 C124.32398346 150.12895119 124.3298823 154.64675117 124.34775543 159.16464996 C124.36424811 163.41640011 124.36638584 167.66792033 124.35761642 171.91969109 C124.35684666 173.47771508 124.36118086 175.0357515 124.37107468 176.59374428 C124.38381912 178.72620002 124.37790465 180.85784449 124.36749268 182.99029541 C124.36895924 184.18196445 124.3704258 185.3736335 124.3719368 186.60141373 C123.77223272 192.08123193 122.44165831 195.73929163 118.24894714 199.40575409 C114.53770107 201.22684831 112.1369096 201.50280293 108.0168457 201.50793457 C107.33808286 201.51417453 106.65932001 201.5204145 105.95998859 201.52684355 C103.6982269 201.54272753 101.43754987 201.53018853 99.17578125 201.51757812 C97.5491778 201.52300133 95.92257926 201.53012511 94.29598999 201.53881836 C89.88686928 201.55703116 85.47812357 201.5499927 81.06899643 201.53730202 C76.45134228 201.52716374 71.83371989 201.53657 67.21606445 201.54284668 C59.46201828 201.55012067 51.70812458 201.5405419 43.95410156 201.52148438 C34.99375216 201.49971609 26.03376683 201.50676763 17.07342625 201.52879 C9.375579 201.54695107 1.67784126 201.54949886 -6.02002048 201.53903532 C-10.61557036 201.53280428 -15.2109492 201.53195404 -19.80648804 201.54518127 C-24.1273233 201.55674947 -28.44768987 201.54869654 -32.76847458 201.52560425 C-34.3527079 201.52032231 -35.93698077 201.52182216 -37.52119827 201.53065491 C-39.68694367 201.54161522 -41.85119506 201.5278437 -44.0168457 201.50793457 C-45.22766312 201.50642647 -46.43848053 201.50491837 -47.68598938 201.50336456 C-52.70351424 200.74125348 -55.71273326 198.61565699 -58.85119057 194.67655849 C-60.28173016 191.34360981 -60.37754463 188.80207511 -60.38095093 185.17506409 C-60.3856309 184.50123922 -60.39031087 183.82741435 -60.39513266 183.13317055 C-60.40706909 180.88227947 -60.39763114 178.63199878 -60.38818359 176.38110352 C-60.39224995 174.76450242 -60.39759219 173.1479041 -60.40411377 171.53131104 C-60.41778669 167.14491115 -60.41248855 162.75872303 -60.40297651 158.37231946 C-60.3953785 153.78002176 -60.40242604 149.18774214 -60.40713501 144.59544373 C-60.41259269 136.8825251 -60.40540118 129.16969265 -60.39111328 121.45678711 C-60.37479252 112.54365965 -60.38007103 103.63073812 -60.3965925 94.71761566 C-60.4102139 87.06226483 -60.41212365 79.40697594 -60.40427649 71.7516169 C-60.39960283 67.18067071 -60.39896658 62.60982125 -60.40888596 58.0388813 C-60.41756264 53.74029547 -60.41152092 49.44197462 -60.39420319 45.14341736 C-60.39024184 43.56724423 -60.39136637 41.99104875 -60.39799118 40.41488457 C-60.40621117 38.26026349 -60.39588066 36.10648708 -60.38095093 33.95191956 C-60.37981985 32.74717767 -60.37868877 31.54243578 -60.37752342 30.30118656 C-59.95208338 26.5810016 -58.94927656 24.18165148 -57 21 C-52.30810219 17.74755403 -48.04686768 17.53480471 -42.5390625 17.48828125 C-41.74849457 17.47033005 -40.95792664 17.45237885 -40.1434021 17.43388367 C-37.63732109 17.38003294 -35.13142773 17.34596719 -32.625 17.3125 C-30.91794278 17.27930452 -29.21091024 17.24481281 -27.50390625 17.20898438 C-23.33607347 17.12432148 -19.1682939 17.05739093 -15 17 C-15.01885254 16.39599365 -15.03770508 15.7919873 -15.05712891 15.16967773 C-15.07912354 13.97000366 -15.07912354 13.97000366 -15.1015625 12.74609375 C-15.12041504 11.9564624 -15.13926758 11.16683105 -15.15869141 10.35327148 C-14.88457604 6.28835143 -13.49672083 4.2194558 -11 1 C-7.11709155 -0.98276176 -4.08578506 -1.67621951 0 0 Z " fill="#F9F8F8" transform="translate(218,150)"/>
<path d="M0 0 C2.8125 2.3125 2.8125 2.3125 5 6 C5 9.96 5 13.92 5 18 C22.49 18 39.98 18 58 18 C58 14.04 58 10.08 58 6 C61 1 61 1 62.8671875 -0.03125 C66.40008593 -0.85605119 68.34176077 -1.24866815 71.8125 0.0625 C74.43811151 2.38804162 75.69572161 3.70498092 77 7 C77.08138273 8.89424732 77.10070433 10.79169026 77.07421875 12.6875 C77.05814575 14.17830078 77.05814575 14.17830078 77.04174805 15.69921875 C77.02797119 16.45847656 77.01419434 17.21773437 77 18 C78.12494873 17.98428955 79.24989746 17.9685791 80.40893555 17.95239258 C84.59278165 17.89798784 88.77659662 17.86361164 92.96069336 17.83520508 C94.76966617 17.82014245 96.5786026 17.79968823 98.38745117 17.77368164 C100.99146515 17.7371868 103.5949952 17.72024843 106.19921875 17.70703125 C107.40731453 17.68380547 107.40731453 17.68380547 108.63981628 17.66011047 C113.23209357 17.65874203 116.32616305 17.93393041 120 21 C125.22600336 31.45200672 122 44.31430124 122 56 C62.6 56 3.2 56 -58 56 C-57.67 46.1 -57.34 36.2 -57 26 C-49.103866 20.35990428 -46.68836745 19.8657834 -37.51171875 19.90234375 C-36.80852005 19.9037587 -36.10532135 19.90517365 -35.3808136 19.90663147 C-33.14966456 19.91219891 -30.91861836 19.92474525 -28.6875 19.9375 C-27.16862125 19.94251921 -25.64974091 19.94708138 -24.13085938 19.95117188 C-20.42053988 19.96215764 -16.71027999 19.97939966 -13 20 C-13.02320313 19.04738281 -13.04640625 18.09476563 -13.0703125 17.11328125 C-13.08835938 15.85902344 -13.10640625 14.60476562 -13.125 13.3125 C-13.14820313 12.07113281 -13.17140625 10.82976562 -13.1953125 9.55078125 C-13.00813956 6.14797711 -12.63000632 3.97108175 -11 1 C-7.10086285 -0.90624483 -4.07102937 -1.6701659 0 0 Z " fill="#FEFDFD" transform="translate(218,150)"/>
<path d="M0 0 C60.06 0 120.12 0 182 0 C182 2.64 182 5.28 182 8 C121.94 8 61.88 8 0 8 C0 5.36 0 2.72 0 0 Z " fill="#010000" transform="translate(159,206)"/>
<path d="M0 0 C2.8125 2.3125 2.8125 2.3125 5 6 C5 9.96 5 13.92 5 18 C22.49 18 39.98 18 58 18 C58 14.04 58 10.08 58 6 C58.33 6 58.66 6 59 6 C59 10.29 59 14.58 59 19 C55.11826616 20.94086692 53.96154859 21.23667199 49.86425781 21.13525391 C48.84350159 21.11508209 47.82274536 21.09491028 46.77105713 21.0741272 C45.12868073 21.02583267 45.12868073 21.02583267 43.453125 20.9765625 C42.3267865 20.95153656 41.200448 20.92651062 40.03997803 20.90072632 C36.44301085 20.81856463 32.84659579 20.72195881 29.25 20.625 C26.81122046 20.56675663 24.37241827 20.50945343 21.93359375 20.453125 C15.95542356 20.31299137 9.97764272 20.16099754 4 20 C4.01377686 20.75853271 4.02755371 21.51706543 4.04174805 22.29858398 C4.05246338 23.29188721 4.06317871 24.28519043 4.07421875 25.30859375 C4.08799561 26.29400146 4.10177246 27.27940918 4.1159668 28.29467773 C3.9702848 31.69320874 3.33162805 33.50757002 1 36 C-1.6875 37.3125 -1.6875 37.3125 -4 38 C-5.53297297 34.93405406 -5.12131455 31.72888147 -5.09765625 28.3671875 C-5.0962413 27.61535187 -5.09482635 26.86351624 -5.09336853 26.08889771 C-5.08776465 23.6842249 -5.07521157 21.27964473 -5.0625 18.875 C-5.0574855 17.24609509 -5.0529225 15.61718873 -5.04882812 13.98828125 C-5.03779397 9.99215173 -5.02052679 5.99609158 -5 2 C-7.31 2.66 -9.62 3.32 -12 4 C-11.67 3.01 -11.34 2.02 -11 1 C-7.05095558 -0.79502019 -4.08330001 -1.6752 0 0 Z " fill="#EFF0F0" transform="translate(218,150)"/>
<path d="M0 0 C2.43984498 2.00415838 2.97123955 2.91371864 4 6 C4.0685495 7.89470816 4.08480372 9.7916834 4.0625 11.6875 C4.05347656 12.68136719 4.04445313 13.67523438 4.03515625 14.69921875 C4.02355469 15.45847656 4.01195312 16.21773437 4 17 C5.12494873 16.98428955 6.24989746 16.9685791 7.40893555 16.95239258 C11.59278165 16.89798784 15.77659662 16.86361164 19.96069336 16.83520508 C21.76966617 16.82014245 23.5786026 16.79968823 25.38745117 16.77368164 C27.99146515 16.7371868 30.5949952 16.72024843 33.19921875 16.70703125 C34.40731453 16.68380547 34.40731453 16.68380547 35.63981628 16.66011047 C40.28803452 16.65872536 43.15974756 17.08194666 47 20 C44.28006125 21.35996938 42.98899369 20.59779874 40 20 C37.13383424 19.85154614 34.28579506 19.74476426 31.41796875 19.68359375 C30.60378983 19.66281265 29.7896109 19.64203156 28.95075989 19.62062073 C26.36308821 19.55550537 23.77531947 19.49641792 21.1875 19.4375 C19.42772455 19.39427858 17.66795872 19.35066315 15.90820312 19.30664062 C11.60556691 19.1998632 7.30283357 19.09848982 3 19 C3.02320313 19.82854492 3.04640625 20.65708984 3.0703125 21.51074219 C3.09738281 23.13737793 3.09738281 23.13737793 3.125 24.796875 C3.14820313 25.87291992 3.17140625 26.94896484 3.1953125 28.05761719 C3 31 3 31 1 34.25 C0.34 34.8275 -0.32 35.405 -1 36 C-2.65 35.67 -4.3 35.34 -6 35 C-6 23.78 -6 12.56 -6 1 C-7.98 1.99 -7.98 1.99 -10 3 C-10.99 3 -11.98 3 -13 3 C-12.67 2.01 -12.34 1.02 -12 0 C-7.32566464 -1.88771236 -4.43964421 -2.58979246 0 0 Z " fill="#F2EEED" transform="translate(291,151)"/>
<path d="M0 0 C1.52634923 3.05269846 0.83794444 5.75845689 0.5625 9.125 C0.46066406 10.40632812 0.35882813 11.68765625 0.25390625 13.0078125 C0.17011719 13.99523437 0.08632812 14.98265625 0 16 C-3.79573451 16.89396424 -7.25407496 17.09332482 -11.1484375 17.02734375 C-12.31890625 17.01509766 -13.489375 17.00285156 -14.6953125 16.99023438 C-17.14068587 16.95518922 -19.58600542 16.91615215 -22.03125 16.87304688 C-33.39516361 16.58468753 -33.39516361 16.58468753 -43 22 C-43.72979058 24.64227164 -43.72979058 24.64227164 -43.81356812 27.70657349 C-43.92659743 29.46871846 -43.92659743 29.46871846 -44.04191017 31.26646233 C-44.10203978 32.5463862 -44.16216938 33.82631008 -44.22412109 35.14501953 C-44.29914163 36.49686672 -44.37489213 37.84867358 -44.45133018 39.20044136 C-45.22349951 53.62444551 -45.35046123 68.0625947 -45.40471697 82.50417471 C-45.42074664 86.23566439 -45.44740067 89.96708092 -45.4727478 93.69851685 C-45.51885215 100.70985088 -45.55591807 107.72119979 -45.58942068 114.73260415 C-45.62813686 122.73803048 -45.67741039 130.74338213 -45.72740483 138.74874473 C-45.82970323 155.16577555 -45.91928278 171.58284854 -46 188 C-46.33 188 -46.66 188 -47 188 C-47.07007981 166.59031996 -47.12298316 145.18065884 -47.15543652 123.77088737 C-47.17090566 113.82996664 -47.19199613 103.88911718 -47.22631836 93.94824219 C-47.25621921 85.28381717 -47.27557466 76.61944376 -47.28226548 67.95496857 C-47.28617657 63.36714993 -47.29536921 58.77947894 -47.31719017 54.19170761 C-47.33756613 49.87271154 -47.34383155 45.55392383 -47.33932304 41.23488426 C-47.34014775 39.6506366 -47.34610684 38.0663819 -47.35761642 36.48217583 C-47.37257832 34.31638416 -47.36894069 32.15137559 -47.36076355 29.98556519 C-47.36352893 28.7743292 -47.36629431 27.56309322 -47.36914349 26.31515312 C-46.95349899 22.58239015 -45.95725527 20.18971803 -44 17 C-39.30810219 13.74755403 -35.04686768 13.53480471 -29.5390625 13.48828125 C-28.74849457 13.47033005 -27.95792664 13.45237885 -27.1434021 13.43388367 C-24.63732109 13.38003294 -22.13142773 13.34596719 -19.625 13.3125 C-17.91794278 13.27930452 -16.21091024 13.24481281 -14.50390625 13.20898438 C-10.33607347 13.12432148 -6.1682939 13.05739093 -2 13 C-2.02320313 12.39671875 -2.04640625 11.7934375 -2.0703125 11.171875 C-2.08835938 10.37265625 -2.10640625 9.5734375 -2.125 8.75 C-2.14820313 7.96109375 -2.17140625 7.1721875 -2.1953125 6.359375 C-1.9828378 3.79268059 -1.28654105 2.2083933 0 0 Z " fill="#EB9797" transform="translate(205,154)"/>
<path d="M0 0 C3 2 3 2 4 5 C4.09830371 7.16553213 4.13502385 9.33401457 4.14044189 11.50177002 C4.14489858 12.49663504 4.14489858 12.49663504 4.1494453 13.51159835 C4.15813088 15.73853922 4.15964043 17.96542633 4.16113281 20.19238281 C4.16576113 21.78735977 4.17078581 23.38233562 4.17617798 24.97731018 C4.18930373 29.31424067 4.19574743 33.65115567 4.20018864 37.98810291 C4.20311944 40.69798046 4.20722429 43.40785377 4.21169281 46.11772919 C4.22536899 54.59717039 4.23503472 63.07660193 4.2388947 71.5560534 C4.24337412 81.34248189 4.26091611 91.12877061 4.2898953 100.9151566 C4.31151922 108.48044726 4.32159938 116.04569862 4.32293582 123.61101985 C4.32398346 128.12895119 4.3298823 132.64675117 4.34775543 137.16464996 C4.36424811 141.41640011 4.36638584 145.66792033 4.35761642 149.91969109 C4.35684666 151.47771508 4.36118086 153.0357515 4.37107468 154.59374428 C4.38381912 156.72620002 4.37790465 158.85784449 4.36749268 160.99029541 C4.36895924 162.18196445 4.3704258 163.3736335 4.3719368 164.60141373 C3.92109866 168.72096392 2.91768488 171.32842235 1 175 C-0.485 175.99 -0.485 175.99 -2 177 C-1.67 175.35 -1.34 173.7 -1 172 C-0.01 171.67 0.98 171.34 2 171 C2.02357552 153.672813 2.04109823 136.34563114 2.05181217 119.01843166 C2.05692361 110.96939489 2.06386533 102.92036819 2.07543945 94.87133789 C2.08554666 87.83897791 2.09189064 80.80662524 2.09408849 73.7742582 C2.09536902 70.06598729 2.09827904 66.35773726 2.10573006 62.64947319 C2.13528166 47.30132534 2.02642844 31.96689312 1.55639648 16.62524414 C1.5271887 15.61490122 1.5271887 15.61490122 1.49739087 14.58414733 C1.44126461 12.69399851 1.37730963 10.80408701 1.31297302 8.91419983 C1.27693686 7.84119157 1.24090071 6.76818331 1.20377254 5.66265965 C1.10052775 2.8967249 1.10052775 2.8967249 0 0 Z " fill="#E89497" transform="translate(338,172)"/>
<path d="M0 0 C2.8125 2.3125 2.8125 2.3125 5 6 C5 9.96 5 13.92 5 18 C22.49 18 39.98 18 58 18 C58 14.04 58 10.08 58 6 C58.33 6 58.66 6 59 6 C59 10.29 59 14.58 59 19 C55.09543445 20.95228278 53.90492478 21.23555643 49.77246094 21.13525391 C48.73168396 21.11508209 47.69090698 21.09491028 46.61859131 21.0741272 C45.50179993 21.04193085 44.38500854 21.0097345 43.234375 20.9765625 C42.08584045 20.95153656 40.93730591 20.92651062 39.75396729 20.90072632 C36.08567666 20.81855666 32.41792677 20.72195384 28.75 20.625 C26.26304292 20.56675745 23.77606365 20.50945423 21.2890625 20.453125 C15.19239734 20.31298192 9.09617786 20.15989353 3 20 C3 16.37 3 12.74 3 9 C2.01 9 1.02 9 0 9 C0 7.35 0 5.7 0 4 C-3.94551835 2.68482722 -8.1768416 2.0884208 -12 4 C-11.67 3.01 -11.34 2.02 -11 1 C-7.05095558 -0.79502019 -4.08330001 -1.6752 0 0 Z " fill="#F1B5B6" transform="translate(218,150)"/>
<path d="M0 0 C0.82178804 0.14067587 1.64357609 0.28135174 2.4902668 0.42629051 C11.78801709 1.90059997 20.87713551 2.30593184 30.27685547 2.31884766 C31.8552602 2.32817172 33.43366012 2.33834396 35.01205444 2.34928894 C39.25074951 2.37632417 43.48941186 2.39165868 47.72816992 2.40471697 C52.17511036 2.42046488 56.62198508 2.44721719 61.06887817 2.4727478 C69.46905442 2.51933091 77.86924331 2.55617334 86.26948178 2.58942068 C95.841612 2.62778767 105.41367588 2.6771591 114.98574996 2.72740483 C134.65711751 2.83041984 154.32852715 2.91977813 174 3 C171.19211667 5.80788333 169.43403851 5.25656281 165.49786377 5.26742554 C164.82251862 5.27195665 164.14717348 5.27648776 163.45136333 5.28115618 C161.17746788 5.29386505 158.90380995 5.29217567 156.62988281 5.29052734 C155.00387258 5.2965087 153.37786519 5.30331333 151.75186157 5.31088257 C147.32608335 5.32859327 142.90038241 5.33324017 138.47457218 5.33451414 C134.78183126 5.33641066 131.08910844 5.34376563 127.39637446 5.35085833 C118.68286015 5.36716038 109.96938718 5.37202576 101.25585938 5.37060547 C92.26607942 5.36940465 83.2765398 5.3904903 74.28682065 5.4220928 C66.57208922 5.44824727 58.85743629 5.45897306 51.14266086 5.45769465 C46.53361243 5.45718462 41.92477731 5.46288983 37.31577301 5.48405075 C32.97861423 5.50341835 28.64187245 5.50356785 24.30469894 5.48901749 C22.71400468 5.4869262 21.12328444 5.4916494 19.53263474 5.5037384 C17.35795747 5.51919334 15.18471748 5.50988305 13.0100708 5.49447632 C11.79405811 5.49556585 10.57804543 5.49665539 9.32518387 5.49777794 C5.34496612 4.90194184 3.12831885 3.48079576 0 1 C0 0.67 0 0.34 0 0 Z " fill="#FECBCB" transform="translate(161,346)"/>
<path d="M0 0 C2.43984498 2.00415838 2.97123955 2.91371864 4 6 C4 9.63 4 13.26 4 17 C16.54 17 29.08 17 42 17 C42 17.33 42 17.66 42 18 C29.13 18 16.26 18 3 18 C2.67 13.71 2.34 9.42 2 5 C1.34 5 0.68 5 0 5 C-0.0825 6.27875 -0.165 7.5575 -0.25 8.875 C-0.51171875 11.0859375 -0.51171875 11.0859375 -1 13 C-3.0625 14.5 -3.0625 14.5 -5 15 C-4.79375 14.0925 -4.5875 13.185 -4.375 12.25 C-3.97173163 8.75500747 -4.33908272 7.93103049 -6 5 C-6 3.68 -6 2.36 -6 1 C-6.598125 1.33 -7.19625 1.66 -7.8125 2 C-10 3 -10 3 -13 3 C-12.67 2.01 -12.34 1.02 -12 0 C-7.32566464 -1.88771236 -4.43964421 -2.58979246 0 0 Z " fill="#EEBBBC" transform="translate(291,151)"/>
<path d="M0 0 C0.66 0.33 1.32 0.66 2 1 C1.18958252 1.67506592 0.37916504 2.35013184 -0.45581055 3.0456543 C-3.60871696 6.70685 -3.64811589 8.49738746 -3.70703125 13.26953125 C-3.72215256 13.95053391 -3.73727386 14.63153656 -3.75285339 15.33317566 C-3.79560078 17.49329063 -3.80455435 19.65200493 -3.8125 21.8125 C-3.83565489 23.28324002 -3.86102231 24.75394698 -3.88867188 26.22460938 C-3.9513916 29.81637971 -3.98383125 33.40768404 -4 37 C-4.33 37 -4.66 37 -5 37 C-6.27795642 31.34971673 -6.22234418 25.83219493 -6.25 20.0625 C-6.270625 18.99064453 -6.29125 17.91878906 -6.3125 16.81445312 C-6.36226351 6.76844381 -6.36226351 6.76844381 -3 2 C-2.01 1.34 -1.02 0.68 0 0 Z " fill="#F49B9B" transform="translate(164,169)"/>
<path d="M0 0 C0.33 0 0.66 0 1 0 C1.12394421 4.60805521 1.21449675 9.21513281 1.2746582 13.82446289 C1.29974547 15.39104114 1.33382415 16.95750299 1.37719727 18.52368164 C1.43811226 20.78040309 1.46626499 23.03557294 1.48828125 25.29296875 C1.51408768 25.98899704 1.5398941 26.68502533 1.56648254 27.40214539 C1.56877939 31.41804472 1.11140973 32.86872677 -1.53051758 35.98168945 C-2.34544678 36.64773193 -3.16037598 37.31377441 -4 38 C-3.67 36.35 -3.34 34.7 -3 33 C-1.515 32.505 -1.515 32.505 0 32 C0 21.44 0 10.88 0 0 Z " fill="#FBC5C7" transform="translate(340,311)"/>
<path d="M0 0 C1.8125 1.5625 1.8125 1.5625 3 3 C2.67 3.99 2.34 4.98 2 6 C1.319375 5.505 0.63875 5.01 -0.0625 4.5 C-3.62709463 2.67978147 -6.04562205 2.70155638 -10 3 C-10.99 3.495 -10.99 3.495 -12 4 C-11.67 3.01 -11.34 2.02 -11 1 C-7.01523464 -0.81125698 -4.17256869 -1.46603765 0 0 Z " fill="#F7B6B2" transform="translate(218,150)"/>
<path d="M0 0 C-2 2 -2 2 -5.375 2.0625 C-6.57125 2.041875 -7.7675 2.02125 -9 2 C-11.31036915 2.42854995 -11.31036915 2.42854995 -13 3 C-12.67 2.01 -12.34 1.02 -12 0 C-7.29424219 -1.90040219 -4.52287687 -2.46702375 0 0 Z " fill="#F8BBB5" transform="translate(291,151)"/>
<path d="M0 0 C4.62 0.66 9.24 1.32 14 2 C14 2.33 14 2.66 14 3 C12.04233719 3.08082094 10.08373272 3.13910778 8.125 3.1875 C6.48917969 3.23970703 6.48917969 3.23970703 4.8203125 3.29296875 C3.88960937 3.19628906 2.95890625 3.09960938 2 3 C1.34 2.01 0.68 1.02 0 0 Z " fill="#FAD4D3" transform="translate(161,346)"/>
<path d="M0 0 C0.66 0 1.32 0 2 0 C2 2.64 2 5.28 2 8 C1.67 6.68 1.34 5.36 1 4 C0.01 4 -0.98 4 -2 4 C-1.34 2.68 -0.68 1.36 0 0 Z " fill="#F9DFDA" transform="translate(220,155)"/>
</svg>
