<?xml version="1.0" encoding="UTF-8"?>
<svg version="1.1" xmlns="http://www.w3.org/2000/svg" width="50" height="50">
<path d="M0 0 C14.52 0 29.04 0 44 0 C44 6 44 6 41.98828125 8.5625 C41.10527344 9.366875 40.22226562 10.17125 39.3125 11 C36.31692039 13.75809972 33.80346715 16.11664722 31.75 19.625 C27.66255849 23.15506312 24.18249843 23.36044921 18.8671875 23.203125 C10.99688252 21.55762523 5.70312981 12.95820865 1 7 C0.67 6.67 0.34 6.34 0 6 C0 4.02 0 2.04 0 0 Z " fill="#FFFFFF" transform="translate(3,2)"/>
<path d="M0 0 C3.96 0 7.92 0 12 0 C12 7.26 12 14.52 12 22 C7 21 7 21 0 17 C0 11.39 0 5.78 0 0 Z " fill="#FFFFFF" transform="translate(19,26)"/>
</svg>
