<?xml version="1.0" encoding="UTF-8"?>
<svg version="1.1" xmlns="http://www.w3.org/2000/svg" width="100" height="100">
<path d="M0 0 C7.83768574 5.76220102 13.61502843 12.42360906 16 22 C16.95564561 31.43222219 16.35322409 39.41593161 12 48 C11.67 48.99 11.34 49.98 11 51 C18.59 58.59 26.18 66.18 34 74 C28 81 28 81 26 83 C21.86991686 82.81983044 19.88889092 80.14672511 17.19140625 77.2734375 C16.27939453 76.3246875 15.36738281 75.3759375 14.42773438 74.3984375 C12.98896491 72.88508341 11.55540679 71.36741006 10.12963867 69.84179688 C8.74707492 68.36870953 7.34447653 66.91450643 5.94140625 65.4609375 C5.11326416 64.58228027 4.28512207 63.70362305 3.43188477 62.79833984 C1.1498736 60.70884024 1.1498736 60.70884024 -1.63208008 61.15625 C-3.36742175 61.7745963 -5.09892332 62.40374807 -6.828125 63.0390625 C-15.11044309 65.54823768 -25.8753287 65.19640666 -33.69140625 61.453125 C-41.96836533 56.24326243 -48.44367614 49.58597406 -51.6015625 40.21484375 C-53.33424341 30.58317632 -52.84783738 20.59534325 -48 12 C-47.649375 11.35675781 -47.29875 10.71351562 -46.9375 10.05078125 C-43.72432758 4.90747401 -39.22060236 1.92992989 -34 -1 C-33.11054687 -1.51433594 -33.11054687 -1.51433594 -32.203125 -2.0390625 C-22.74614435 -6.51648254 -8.76173478 -5.37009551 0 0 Z M-34 10 C-40.17122626 16.21028466 -43.27597674 20.83109044 -43.375 29.8125 C-43.22704248 38.15034149 -41.2660002 42.7565606 -35.6875 48.8125 C-30.40797678 53.74379935 -24.23351495 56 -17 56 C-7.864875 55.00570068 -2.4827584 50.85771954 3.484375 44.09765625 C8.10786874 37.69864558 7.68025158 30.59470747 7 23 C5.32851703 16.73444109 0.99805966 11.97524998 -4 8 C-14.01499939 2.53727306 -25.05587283 2.61137321 -34 10 Z " fill="#FAC2CC" transform="translate(60,10)"/>
<path d="M0 0 C0.66 0.66 1.32 1.32 2 2 C0.35 3.98 -1.3 5.96 -3 8 C-3.99 7.67 -4.98 7.34 -6 7 C-4.02 4.69 -2.04 2.38 0 0 Z " fill="#F2C7D2" transform="translate(63,53)"/>
</svg>
