<?xml version="1.0" encoding="UTF-8"?>
<svg version="1.1" xmlns="http://www.w3.org/2000/svg" width="500" height="500">
<path d="M0 0 C1.01078613 0.41693115 1.01078613 0.41693115 2.04199219 0.84228516 C10.46921865 4.44400663 17.79566239 9.37603902 25 15 C25.84175781 15.60328125 26.68351563 16.2065625 27.55078125 16.828125 C47.02223573 31.24245211 58.32758887 55.67442374 62.3503418 79.03442383 C66.04191811 105.83413611 59.62938942 132.46449919 43.5 154.25 C42.00712952 156.17222497 40.50794061 158.08957433 39 160 C38.53207031 160.63550781 38.06414062 161.27101563 37.58203125 161.92578125 C23.2414082 180.41415373 -1.96787995 191.14107827 -24.38623047 194.67041016 C-50.89277573 198.01281966 -77.69677719 191.2413531 -98.875 174.875 C-100.92923652 173.26479745 -102.96538672 171.63524621 -105 170 C-105.84046875 169.37480469 -106.6809375 168.74960937 -107.546875 168.10546875 C-110.58839173 165.49499499 -112.9373289 162.60517809 -115.375 159.4375 C-116.09453857 158.50768311 -116.09453857 158.50768311 -116.82861328 157.55908203 C-133.23303078 136.11478635 -141.99375658 109.61213346 -138.6953125 82.49511719 C-134.63568249 55.62078079 -122.150568 30.50908737 -99.984375 13.8671875 C-98.58032784 12.85938561 -97.16864056 11.8621535 -95.75 10.875 C-94.99912109 10.35220459 -94.24824219 9.82940918 -93.47460938 9.29077148 C-82.70969708 1.93328253 -71.46310331 -1.59978294 -59 -5 C-58.40944824 -5.17958252 -57.81889648 -5.35916504 -57.21044922 -5.54418945 C-39.14358445 -9.26970707 -16.84825435 -7.00915216 0 0 Z " fill="#FEFEFE" transform="translate(288,156)"/>
<path d="M0 0 C3.47814917 1.39125967 6.05360495 2.52152669 9.1171875 4.46875 C9.8812793 4.95239014 10.64537109 5.43603027 11.43261719 5.93432617 C12.23860352 6.45099854 13.04458984 6.9676709 13.875 7.5 C14.71708008 8.03536377 15.55916016 8.57072754 16.42675781 9.12231445 C22.19500365 12.80358145 27.89143761 16.58255459 33.5625 20.41113281 C37.91969611 23.33243475 42.36383897 26.07345684 46.875 28.75 C60.0956579 36.59939203 60.0956579 36.59939203 63 39 C63 39.66 63 40.32 63 41 C61.02853199 42.42931431 59.06839749 43.72371379 57 45 C56.37134033 45.39590332 55.74268066 45.79180664 55.0949707 46.19970703 C53.06784189 47.47387374 51.03451383 48.73766458 49 50 C47.70159096 50.8095239 46.40341092 51.61941525 45.10546875 52.4296875 C43.13090716 53.66224316 41.15617363 54.89450373 39.18017578 56.12475586 C34.21362794 59.22274282 29.28631056 62.37776128 24.375 65.5625 C23.6732666 66.01713623 22.9715332 66.47177246 22.24853516 66.94018555 C18.78916143 69.18368053 15.33510631 71.43496928 11.88671875 73.6953125 C10.61200778 74.52608557 9.33726956 75.35681683 8.0625 76.1875 C7.47710449 76.57429932 6.89170898 76.96109863 6.28857422 77.35961914 C2.22598129 80 2.22598129 80 0 80 C0 53.6 0 27.2 0 0 Z " fill="#020202" transform="translate(227,211)"/>
</svg>
